PathFileType	4	(X/Y/Z)	S1_nor_med_right & left.trc
DataRate	CameraRate	NumFrames	NumMarkers	Units	OrigDataRate	OrigDataStartFrame	OrigNumFrames
250.00	250.00	10	18	mm	250.00	1	16793
Frame#	Time	c7	r_should	l_should	clavicle	r_upa	r_elb_l	r_elb_m	r_low	r_wri_l	r_wri_m	r_met	l_upa	l_elb_l	l_elb_m	l_low	l_wri_l	l_wri_m	l_met
	X1	Y1	Z1	X2	Y2	Z2	X3	Y3	Z3	X4	Y4	Z4	X5	Y5	Z5	X6	Y6	Z6	X7	Y7	Z7	X8	Y8	Z8	X9	Y9	Z9	X10	Y10	Z10	X11	Y11	Z11	X12	Y12	Z12	X13	Y13	Z13	X14	Y14	Z14	X15	Y15	Z15	X16	Y16	Z16	X17	Y17	Z17	X18	Y18	Z18
1	0.00000	912.02606	1420.15076	129.01816	991.68433	1343.14160	301.67624	956.48090	1362.08606	-68.79179	1045.31189	1294.23303	105.40333	978.68109	1134.88855	350.75284	991.39197	1031.71021	354.64935	904.62073	1020.02802	296.98557	943.48370	904.07440	373.57724	1018.22186	813.86804	343.53265	944.13489	798.71497	348.45718	1044.50989	733.77948	366.15256	953.87799	1138.30798	-104.74084	962.51514	1052.32239	-115.31837	893.35236	1030.00708	-40.00610	910.02411	911.77234	-128.42270	980.80261	817.12268	-106.84295	909.91718	810.10120	-124.02104	993.06561	738.23346	-126.83411
2	0.00400	912.05432	1420.14307	129.01709	991.72113	1343.15967	301.69873	956.52826	1362.07263	-68.77489	1045.35095	1294.23767	105.42160	978.69196	1134.87964	350.73135	991.40057	1031.69458	354.61682	904.63324	1020.02905	296.93777	943.44946	904.07660	373.53583	1018.16895	813.84320	343.47678	944.07965	798.70612	348.44107	1044.45349	733.75018	366.06824	953.93243	1138.28540	-104.69370	962.57220	1052.29956	-115.26959	893.41351	1029.99109	-39.94138	910.06702	911.74689	-128.36385	980.99670	817.12573	-106.66672	909.96826	810.08112	-123.96136	993.11823	738.20026	-126.79800
3	0.00800	912.07599	1420.12671	129.02136	991.75256	1343.17090	301.71487	956.57123	1362.05554	-68.75864	1045.38123	1294.23682	105.43940	978.70691	1134.85938	350.71255	991.40692	1031.67444	354.58524	904.64648	1020.02692	296.88281	943.41956	904.07092	373.49786	1018.10992	813.81366	343.41727	944.02722	798.68903	348.42474	1044.39087	733.71960	365.98712	953.98328	1138.26050	-104.65459	962.62823	1052.27002	-115.21280	893.47437	1029.96960	-39.88478	910.11035	911.71863	-128.30234	981.21509	817.14050	-106.45685	910.01880	810.05444	-123.89960	993.15869	738.16705	-126.75595
4	0.01200	912.10126	1420.11304	129.03188	991.78003	1343.17224	301.72610	956.60687	1362.03528	-68.74802	1045.40918	1294.22449	105.45614	978.71997	1134.83704	350.69037	991.40759	1031.64417	354.54642	904.65680	1020.02313	296.83511	943.38525	904.06213	373.46155	1018.04541	813.77838	343.36014	943.97626	798.66608	348.40994	1044.32861	733.67798	365.90088	954.02948	1138.23193	-104.61526	962.67999	1052.23328	-115.15275	893.53156	1029.94324	-39.82453	910.15466	911.69098	-128.24684	981.16730	817.08252	-106.47630	910.06396	810.02570	-123.84589	993.18799	738.13196	-126.71342
5	0.01600	912.12878	1420.09546	129.03639	991.80902	1343.17566	301.73517	956.64252	1362.01990	-68.74593	1045.43481	1294.20935	105.47950	978.74072	1134.81824	350.66891	991.40924	1031.61230	354.49957	904.67139	1020.01678	296.77884	943.35138	904.05383	373.42294	1017.97925	813.73895	343.30646	943.92114	798.65240	348.39890	1044.26318	733.63501	365.82504	954.07330	1138.19458	-104.57819	962.72626	1052.19031	-115.10631	893.59119	1029.91418	-39.76120	910.19812	911.65723	-128.19096	981.32214	817.08252	-106.33051	910.10840	809.99683	-123.79334	993.22705	738.08765	-126.67802
6	0.02000	912.14697	1420.06921	129.05246	991.84021	1343.17920	301.74527	956.67816	1362.00513	-68.74856	1045.46179	1294.20325	105.49600	978.75763	1134.79834	350.64166	991.41583	1031.58008	354.44980	904.68726	1020.01117	296.71436	943.32141	904.04346	373.38239	1017.91858	813.70410	343.24817	943.86780	798.64069	348.38724	1044.19275	733.58990	365.74942	954.11810	1138.15906	-104.54604	962.77606	1052.15051	-115.05687	893.65198	1029.88220	-39.69808	910.24060	911.62506	-128.13490	981.25177	817.01355	-106.37686	910.15674	809.96942	-123.74106	993.26630	738.03406	-126.64648
7	0.02400	912.16614	1420.05872	129.05316	991.87402	1343.18518	301.75232	956.70667	1361.98547	-68.74413	1045.48706	1294.20239	105.50413	978.77301	1134.78650	350.60394	991.42078	1031.54895	354.39484	904.71051	1020.00378	296.65027	943.29395	904.03632	373.33585	1017.86102	813.66980	343.19260	943.82227	798.62970	348.37189	1044.12744	733.55005	365.67487	954.16193	1138.13306	-104.50536	962.82336	1052.11926	-115.01450	893.71228	1029.84973	-39.63882	910.28406	911.59607	-128.07858	981.53033	817.04962	-106.13077	910.19824	809.93799	-123.68301	993.30634	737.99304	-126.60847
8	0.02800	912.18951	1420.05225	129.05113	991.90784	1343.19910	301.76999	956.73676	1361.96021	-68.73335	1045.51123	1294.19739	105.50864	978.80054	1134.77832	350.58008	991.42700	1031.52527	354.34067	904.72858	1020.00452	296.59204	943.27087	904.03717	373.29266	1017.80798	813.63934	343.13733	943.77289	798.62152	348.35947	1044.06323	733.50726	365.60101	954.20996	1138.10718	-104.45900	962.87488	1052.09253	-114.96203	893.77655	1029.81714	-39.56984	910.32812	911.56091	-128.01413	981.63110	817.03644	-106.02746	910.23993	809.90613	-123.61224	993.33154	737.96289	-126.55878
9	0.03200	912.20984	1420.04822	129.05927	991.93750	1343.21655	301.78159	956.76050	1361.93896	-68.72481	1045.54260	1294.19812	105.52100	978.83282	1134.76575	350.55292	991.44122	1031.50342	354.29800	904.74841	1019.99915	296.53430	943.25104	904.03894	373.24643	1017.76062	813.60992	343.08090	943.72180	798.61725	348.34155	1044.00037	733.46045	365.52679	954.25775	1138.07556	-104.41560	962.93152	1052.06628	-114.90154	893.84253	1029.78772	-39.49639	910.37024	911.51819	-127.94101	981.55292	816.96533	-106.06684	910.28363	809.87653	-123.54765	993.35730	737.92944	-126.51228
10	0.03600	912.22668	1420.05115	129.06236	991.97778	1343.22546	301.79184	956.78455	1361.91553	-68.71089	1045.57764	1294.20593	105.52934	978.87445	1134.75940	350.52106	991.45929	1031.47583	354.24829	904.76813	1019.99976	296.46667	943.23120	904.04272	373.19876	1017.71295	813.57605	343.02124	943.67279	798.61377	348.32175	1043.94202	733.40955	365.44464	954.30408	1138.03882	-104.37605	962.99139	1052.04028	-114.85487	893.90674	1029.75854	-39.42745	910.41803	911.47235	-127.86329	981.42865	816.87146	-106.14303	910.32086	809.84973	-123.48886	993.39648	737.89093	-126.47124
